<svg width="169" height="78" viewBox="0 0 169 78" fill="none" xmlns="http://www.w3.org/2000/svg">
<path d="M7.23047 65.6719H3.63281V63.293H7.23047C7.81641 63.293 8.28906 63.168 8.64844 62.918C9.01562 62.668 9.28125 62.3242 9.44531 61.8867C9.61719 61.4492 9.70312 60.9531 9.70312 60.3984C9.70312 59.8672 9.61719 59.3672 9.44531 58.8984C9.28125 58.4297 9.01953 58.0508 8.66016 57.7617C8.30078 57.4727 7.82422 57.3281 7.23047 57.3281H4.42969V72H1.59375V54.9375H7.23047C8.35547 54.9375 9.31641 55.1719 10.1133 55.6406C10.9102 56.1094 11.5195 56.7539 11.9414 57.5742C12.3633 58.3867 12.5742 59.3203 12.5742 60.375C12.5742 61.4766 12.3633 62.4219 11.9414 63.2109C11.5195 64 10.9102 64.6094 10.1133 65.0391C9.31641 65.4609 8.35547 65.6719 7.23047 65.6719ZM20.0386 72.2344C19.2183 72.2344 18.4878 72.1133 17.8472 71.8711C17.2066 71.6211 16.6636 71.2539 16.2183 70.7695C15.773 70.2773 15.4331 69.6758 15.1987 68.9648C14.9644 68.2461 14.8472 67.4141 14.8472 66.4688V65.25C14.8472 64.1797 14.9683 63.2578 15.2105 62.4844C15.4605 61.7031 15.8042 61.0625 16.2417 60.5625C16.6792 60.0625 17.1948 59.6914 17.7886 59.4492C18.3902 59.207 19.0425 59.0859 19.7456 59.0859C20.5425 59.0859 21.2339 59.2148 21.8198 59.4727C22.4058 59.7305 22.8862 60.1172 23.2612 60.6328C23.6441 61.1484 23.9253 61.7852 24.105 62.543C24.2925 63.3008 24.3862 64.1719 24.3862 65.1562V66.5273H16.1597V64.4648H21.6909V64.1719C21.6753 63.5938 21.605 63.0977 21.48 62.6836C21.355 62.2617 21.1519 61.9414 20.8706 61.7227C20.5972 61.4961 20.2183 61.3828 19.7339 61.3828C19.3823 61.3828 19.0698 61.4492 18.7964 61.582C18.523 61.7148 18.2964 61.9297 18.1167 62.2266C17.9448 62.5234 17.812 62.9219 17.7183 63.4219C17.6245 63.9141 17.5777 64.5234 17.5777 65.25V66.4688C17.5777 67.1016 17.6323 67.6367 17.7417 68.0742C17.8589 68.5117 18.0308 68.8711 18.2573 69.1523C18.4839 69.4258 18.7573 69.6289 19.0777 69.7617C19.4058 69.8867 19.7847 69.9492 20.2144 69.9492C20.8472 69.9492 21.3902 69.832 21.8433 69.5977C22.3042 69.3555 22.7027 69.043 23.0386 68.6602L24.2456 70.3359C24.0191 70.6406 23.7144 70.9414 23.3316 71.2383C22.9487 71.5273 22.4839 71.7656 21.937 71.9531C21.398 72.1406 20.7652 72.2344 20.0386 72.2344ZM33.5147 68.2148L36.3506 59.3203H38.7178L34.4873 72H32.5303L28.2881 59.3203H30.6787L33.5147 68.2148ZM29.9287 59.3203V72H27.2569V59.3203H29.9287ZM37.1006 72V59.3203H39.7842V72H37.1006ZM51.8072 66.4336H54.6431C54.5884 67.668 54.3384 68.7188 53.8931 69.5859C53.4478 70.4453 52.8072 71.1016 51.9712 71.5547C51.1431 72.0078 50.1314 72.2344 48.9361 72.2344C48.0298 72.2344 47.2173 72.0703 46.4986 71.7422C45.7877 71.4141 45.1822 70.9414 44.6822 70.3242C44.1822 69.6992 43.7994 68.9375 43.5337 68.0391C43.2759 67.1406 43.147 66.1211 43.147 64.9805V61.957C43.147 60.8164 43.2798 59.7969 43.5455 58.8984C43.8189 58 44.2095 57.2383 44.7173 56.6133C45.2252 55.9883 45.8423 55.5156 46.5689 55.1953C47.3033 54.8672 48.1314 54.7031 49.0533 54.7031C50.233 54.7031 51.2252 54.9297 52.0298 55.3828C52.8345 55.8359 53.4556 56.5 53.8931 57.375C54.3306 58.25 54.5845 59.3164 54.6548 60.5742H51.8189C51.7798 59.7227 51.6627 59.043 51.4673 58.5352C51.2798 58.0195 50.9908 57.6484 50.6002 57.4219C50.2173 57.1953 49.7017 57.082 49.0533 57.082C48.5142 57.082 48.0494 57.1836 47.6587 57.3867C47.2759 57.5898 46.9595 57.8945 46.7095 58.3008C46.4673 58.6992 46.2837 59.2031 46.1587 59.8125C46.0416 60.4141 45.983 61.1211 45.983 61.9336V64.9805C45.983 65.7617 46.0337 66.4531 46.1353 67.0547C46.2369 67.6562 46.4009 68.168 46.6275 68.5898C46.8541 69.0039 47.1548 69.3203 47.5298 69.5391C47.9048 69.75 48.3736 69.8555 48.9361 69.8555C49.608 69.8555 50.1431 69.75 50.5416 69.5391C50.9478 69.3281 51.2486 68.9727 51.4439 68.4727C51.6392 67.9727 51.7603 67.293 51.8072 66.4336ZM62.2598 72.2344C61.4395 72.2344 60.7091 72.1133 60.0684 71.8711C59.4278 71.6211 58.8848 71.2539 58.4395 70.7695C57.9942 70.2773 57.6544 69.6758 57.42 68.9648C57.1856 68.2461 57.0684 67.4141 57.0684 66.4688V65.25C57.0684 64.1797 57.1895 63.2578 57.4317 62.4844C57.6817 61.7031 58.0255 61.0625 58.463 60.5625C58.9005 60.0625 59.4161 59.6914 60.0098 59.4492C60.6114 59.207 61.2637 59.0859 61.9669 59.0859C62.7637 59.0859 63.4552 59.2148 64.0411 59.4727C64.627 59.7305 65.1075 60.1172 65.4825 60.6328C65.8653 61.1484 66.1466 61.7852 66.3262 62.543C66.5137 63.3008 66.6075 64.1719 66.6075 65.1562V66.5273H58.3809V64.4648H63.9122V64.1719C63.8966 63.5938 63.8262 63.0977 63.7012 62.6836C63.5762 62.2617 63.3731 61.9414 63.0919 61.7227C62.8184 61.4961 62.4395 61.3828 61.9552 61.3828C61.6036 61.3828 61.2911 61.4492 61.0177 61.582C60.7442 61.7148 60.5177 61.9297 60.338 62.2266C60.1661 62.5234 60.0333 62.9219 59.9395 63.4219C59.8458 63.9141 59.7989 64.5234 59.7989 65.25V66.4688C59.7989 67.1016 59.8536 67.6367 59.963 68.0742C60.0802 68.5117 60.252 68.8711 60.4786 69.1523C60.7052 69.4258 60.9786 69.6289 61.2989 69.7617C61.627 69.8867 62.0059 69.9492 62.4356 69.9492C63.0684 69.9492 63.6114 69.832 64.0645 69.5977C64.5255 69.3555 64.9239 69.043 65.2598 68.6602L66.4669 70.3359C66.2403 70.6406 65.9356 70.9414 65.5528 71.2383C65.17 71.5273 64.7052 71.7656 64.1583 71.9531C63.6192 72.1406 62.9864 72.2344 62.2598 72.2344ZM72.0094 61.7578V76.875H69.2906V59.3203H71.7867L72.0094 61.7578ZM78.8297 65.1562V66.1641C78.8297 67.1562 78.7398 68.0312 78.5602 68.7891C78.3805 69.5469 78.1148 70.1836 77.7633 70.6992C77.4195 71.207 76.9938 71.5898 76.4859 71.8477C75.9781 72.1055 75.3844 72.2344 74.7047 72.2344C74.0641 72.2344 73.5055 72.0938 73.0289 71.8125C72.5602 71.5312 72.1656 71.1367 71.8453 70.6289C71.525 70.1211 71.2672 69.5195 71.0719 68.8242C70.8844 68.1211 70.7477 67.3555 70.6617 66.5273V64.9805C70.7477 64.1055 70.8805 63.3086 71.0602 62.5898C71.2477 61.8633 71.5016 61.2383 71.8219 60.7148C72.15 60.1914 72.5484 59.7891 73.0172 59.5078C73.4859 59.2266 74.0445 59.0859 74.693 59.0859C75.3727 59.0859 75.9703 59.207 76.4859 59.4492C77.0016 59.6914 77.4313 60.0625 77.775 60.5625C78.1266 61.0625 78.3883 61.6953 78.5602 62.4609C78.7398 63.2188 78.8297 64.1172 78.8297 65.1562ZM76.0992 66.1641V65.1562C76.0992 64.5078 76.0563 63.9492 75.9703 63.4805C75.8922 63.0039 75.7594 62.6133 75.5719 62.3086C75.3922 62.0039 75.1617 61.7773 74.8805 61.6289C74.607 61.4805 74.2672 61.4062 73.8609 61.4062C73.5016 61.4062 73.1852 61.4805 72.9117 61.6289C72.6383 61.7773 72.4078 61.9844 72.2203 62.25C72.0328 62.5078 71.8844 62.8164 71.775 63.1758C71.6656 63.5273 71.5953 63.9102 71.5641 64.3242V67.1953C71.6344 67.6953 71.7516 68.1562 71.9156 68.5781C72.0797 68.9922 72.318 69.3242 72.6305 69.5742C72.9508 69.8242 73.3688 69.9492 73.8844 69.9492C74.2828 69.9492 74.6227 69.8711 74.9039 69.7148C75.1852 69.5586 75.4117 69.3242 75.5836 69.0117C75.7633 68.6992 75.8922 68.3086 75.9703 67.8398C76.0563 67.3633 76.0992 66.8047 76.0992 66.1641ZM86.9386 66.5859H83.6456L83.6339 64.5586H86.2823C86.6886 64.5586 87.0206 64.5078 87.2784 64.4062C87.5441 64.2969 87.7394 64.1367 87.8644 63.9258C87.9972 63.707 88.0636 63.4414 88.0636 63.1289C88.0636 62.8633 88.0245 62.6328 87.9464 62.4375C87.8683 62.2422 87.7511 62.082 87.5948 61.957C87.4464 61.832 87.2589 61.7422 87.0323 61.6875C86.8136 61.625 86.5558 61.5938 86.2589 61.5938H84.548V72H81.8175V59.3203H86.2589C86.9542 59.3203 87.5792 59.3906 88.1339 59.5312C88.6964 59.6719 89.1769 59.8867 89.5753 60.1758C89.9737 60.4648 90.2745 60.832 90.4777 61.2773C90.6886 61.7148 90.7941 62.2344 90.7941 62.8359C90.7941 63.2188 90.7198 63.582 90.5714 63.9258C90.4308 64.2695 90.2159 64.5742 89.9269 64.8398C89.6456 65.1055 89.298 65.3242 88.8839 65.4961C88.4698 65.6602 87.9933 65.7617 87.4542 65.8008L86.9386 66.5859ZM86.9386 72H82.837L83.9737 69.7266H86.9269C87.3097 69.7266 87.6144 69.668 87.8409 69.5508C88.0753 69.4258 88.2472 69.25 88.3566 69.0234C88.4737 68.7891 88.5323 68.5078 88.5323 68.1797C88.5323 67.8516 88.4777 67.5703 88.3683 67.3359C88.2667 67.0938 88.0987 66.9102 87.8644 66.7852C87.63 66.6523 87.3175 66.5859 86.9269 66.5859H84.2198L84.2433 64.5586H87.4073L88.1573 65.3555C88.8605 65.4102 89.4425 65.582 89.9034 65.8711C90.3644 66.1602 90.7042 66.5234 90.923 66.9609C91.1495 67.3984 91.2628 67.875 91.2628 68.3906C91.2628 68.9844 91.1652 69.5078 90.9698 69.9609C90.7745 70.4141 90.4933 70.793 90.1261 71.0977C89.7667 71.3945 89.3175 71.6211 88.7784 71.7773C88.2394 71.9258 87.6261 72 86.9386 72ZM96.9225 67.3242L100.731 59.3203H103.391V72H100.684V64.0078L96.8756 72H94.2155V59.3203H96.9225V67.3242ZM111.195 69.9492C111.547 69.9492 111.86 69.875 112.133 69.7266C112.414 69.5781 112.637 69.3477 112.801 69.0352C112.965 68.7148 113.055 68.3008 113.07 67.793H115.637C115.621 68.6914 115.414 69.4766 115.016 70.1484C114.617 70.8125 114.086 71.3281 113.422 71.6953C112.766 72.0547 112.035 72.2344 111.231 72.2344C110.395 72.2344 109.664 72.1016 109.039 71.8359C108.422 71.5625 107.91 71.168 107.504 70.6523C107.098 70.1367 106.793 69.5117 106.59 68.7773C106.395 68.0352 106.297 67.1875 106.297 66.2344V65.0859C106.297 64.1406 106.395 63.2969 106.59 62.5547C106.793 61.8125 107.098 61.1836 107.504 60.668C107.91 60.1523 108.422 59.7617 109.039 59.4961C109.656 59.2227 110.383 59.0859 111.219 59.0859C112.11 59.0859 112.879 59.2734 113.527 59.6484C114.184 60.0156 114.695 60.5547 115.063 61.2656C115.43 61.9766 115.621 62.8477 115.637 63.8789H113.07C113.055 63.332 112.973 62.875 112.824 62.5078C112.676 62.1328 112.465 61.8516 112.192 61.6641C111.926 61.4766 111.59 61.3828 111.184 61.3828C110.738 61.3828 110.371 61.4688 110.082 61.6406C109.801 61.8047 109.582 62.0469 109.426 62.3672C109.277 62.6875 109.172 63.0781 109.11 63.5391C109.055 63.9922 109.027 64.5078 109.027 65.0859V66.2344C109.027 66.8281 109.055 67.3555 109.11 67.8164C109.164 68.2695 109.266 68.6562 109.414 68.9766C109.57 69.2969 109.793 69.5391 110.082 69.7031C110.371 69.8672 110.742 69.9492 111.195 69.9492ZM127.378 54.9375V72H124.53V54.9375H127.378ZM135.898 54.9375L130.202 64.6992H126.558L126.148 62.0742H128.609L132.429 54.9375H135.898ZM132.933 72L128.691 64.2305L130.519 61.9336L136.343 72H132.933ZM139.425 54.9375H142.014L145.94 67.6289L149.854 54.9375H152.257L147.007 72H144.862L139.425 54.9375ZM138.452 54.9375H140.842L141.229 65.8008V72H138.452V54.9375ZM151.014 54.9375H153.417V72H150.639V65.8008L151.014 54.9375ZM162.58 64.3125H159.1L159.088 62.1328H162.17C162.647 62.1328 163.053 62.0391 163.389 61.8516C163.725 61.6641 163.979 61.3906 164.151 61.0312C164.33 60.6719 164.42 60.2383 164.42 59.7305C164.42 59.168 164.342 58.7109 164.186 58.3594C164.03 58 163.783 57.7383 163.447 57.5742C163.119 57.4102 162.697 57.3281 162.182 57.3281H159.944V72H157.096V54.9375H162.182C162.979 54.9375 163.69 55.0312 164.315 55.2188C164.947 55.3984 165.483 55.6758 165.92 56.0508C166.358 56.4258 166.69 56.9062 166.916 57.4922C167.151 58.0703 167.268 58.7578 167.268 59.5547C167.268 60.25 167.119 60.8906 166.822 61.4766C166.526 62.0547 166.084 62.5312 165.498 62.9062C164.92 63.2734 164.201 63.4922 163.342 63.5625L162.58 64.3125ZM162.475 72H158.162L159.475 69.6211H162.475C162.983 69.6211 163.401 69.5117 163.729 69.293C164.057 69.0742 164.303 68.7695 164.467 68.3789C164.631 67.9883 164.713 67.5312 164.713 67.0078C164.713 66.4609 164.643 65.9844 164.502 65.5781C164.362 65.1719 164.135 64.8594 163.822 64.6406C163.51 64.4219 163.096 64.3125 162.58 64.3125H159.709L159.733 62.1328H163.401L164.057 62.9648C164.877 62.9805 165.545 63.1836 166.061 63.5742C166.576 63.957 166.955 64.4531 167.197 65.0625C167.44 65.6719 167.561 66.3242 167.561 67.0195C167.561 68.1055 167.358 69.0195 166.951 69.7617C166.545 70.4961 165.963 71.0547 165.205 71.4375C164.455 71.8125 163.545 72 162.475 72Z" fill="black"/>
<path fill-rule="evenodd" clip-rule="evenodd" d="M84.944 17.7798C81.8343 17.7798 79.3134 20.2344 79.3134 23.2622C79.3134 26.2901 81.8343 28.7447 84.944 28.7447C88.0538 28.7447 90.5746 26.2901 90.5746 23.2622C90.5746 20.2344 88.0538 17.7798 84.944 17.7798ZM82.1287 23.2622C82.1287 21.7483 83.3892 20.521 84.944 20.521C86.4989 20.521 87.7593 21.7483 87.7593 23.2622C87.7593 24.7762 86.4989 26.0035 84.944 26.0035C83.3892 26.0035 82.1287 24.7762 82.1287 23.2622Z" fill="url(#paint0_linear_5_4)"/>
<path fill-rule="evenodd" clip-rule="evenodd" d="M83.9396 7.5C81.9677 7.5 80.2225 8.826 79.8363 10.7292L79.725 11.2777C79.4607 12.58 77.9926 13.4356 76.5612 12.9662L76.0026 12.783C74.1363 12.171 72.0478 12.8861 71.0337 14.544L70.0294 16.1861C69.0058 17.8597 69.3952 19.9793 70.9224 21.2256L71.3698 21.5907C72.4569 22.4779 72.4569 24.0462 71.3698 24.9334L70.9224 25.2985C69.3952 26.5448 69.0058 28.6643 70.0294 30.338L71.0337 31.98C72.0477 33.638 74.1364 34.3531 76.0027 33.7411L76.5612 33.5578C77.9926 33.0884 79.4607 33.9439 79.725 35.2463L79.8363 35.7948C80.2225 37.6981 81.9677 39.0241 83.9396 39.0241H85.9482C87.9203 39.0241 89.6654 37.6981 90.0517 35.7947L90.1629 35.2464C90.4271 33.9441 91.8953 33.0884 93.3267 33.5578L93.8853 33.7411C95.7515 34.3531 97.8402 33.638 98.8543 31.98L99.8585 30.3381C100.882 28.6645 100.493 26.5448 98.9655 25.2985L98.518 24.9334C97.4309 24.0463 97.4309 22.4778 98.518 21.5907L98.9655 21.2256C100.493 19.9793 100.882 17.8597 99.8585 16.186L98.8543 14.544C97.8402 12.8861 95.7517 12.171 93.8854 12.7829L93.3266 12.9662C91.8953 13.4356 90.4271 12.58 90.1629 11.2776L90.0517 10.7294C89.6654 8.82608 87.9203 7.5 85.9482 7.5H83.9396ZM82.5983 11.2606C82.7124 10.6981 83.2521 10.2412 83.9396 10.2412H85.9482C86.6358 10.2412 87.1755 10.6981 87.2897 11.2607L87.4009 11.8089C88.0111 14.8165 91.2653 16.5346 94.2251 15.564L94.7839 15.3808C95.43 15.169 96.1196 15.4303 96.4354 15.9466L97.4396 17.5886C97.7458 18.0892 97.6419 18.729 97.1571 19.1247L96.7097 19.4898C94.28 21.4725 94.28 25.0517 96.7097 27.0344L97.1571 27.3994C97.6419 27.7951 97.7458 28.4349 97.4396 28.9356L96.4354 30.5774C96.1196 31.0938 95.43 31.3551 94.7839 31.1432L94.2252 30.96C91.2653 29.9893 88.0111 31.7075 87.4009 34.7152L87.2897 35.2634C87.1755 35.8259 86.6358 36.2829 85.9482 36.2829H83.9396C83.2521 36.2829 82.7124 35.8261 82.5983 35.2634L82.4869 34.7149C81.8766 31.7074 78.6223 29.9893 75.6625 30.9601L75.104 31.1432C74.4579 31.3551 73.7684 31.0938 73.4526 30.5774L72.4483 28.9354C72.1422 28.4349 72.246 27.7951 72.7308 27.3994L73.1783 27.0343C75.6079 25.0515 75.6078 21.4726 73.1783 19.4898L72.7308 19.1247C72.246 18.7291 72.1422 18.0892 72.4483 17.5886L73.4526 15.9466C73.7684 15.4303 74.458 15.169 75.104 15.3808L75.6627 15.564C78.6224 16.5346 81.8766 14.8166 82.4869 11.8091L82.5983 11.2606Z" fill="url(#paint1_linear_5_4)"/>
<path d="M71 43L100 43" stroke="url(#paint2_linear_5_4)" stroke-width="2" stroke-linecap="round"/>
<defs>
<linearGradient id="paint0_linear_5_4" x1="70.0229" y1="23.2622" x2="105.477" y2="26.8745" gradientUnits="userSpaceOnUse">
<stop stop-color="#7C03F4"/>
<stop offset="1" stop-color="#0092D1"/>
</linearGradient>
<linearGradient id="paint1_linear_5_4" x1="43.91" y1="23.2621" x2="141.496" y2="32.7727" gradientUnits="userSpaceOnUse">
<stop stop-color="#7C03F4"/>
<stop offset="1" stop-color="#0092D1"/>
</linearGradient>
<linearGradient id="paint2_linear_5_4" x1="47.075" y1="43.5" x2="57.0188" y2="72.1082" gradientUnits="userSpaceOnUse">
<stop stop-color="#7C03F4"/>
<stop offset="1" stop-color="#0092D1"/>
</linearGradient>
</defs>
</svg>
