<svg width="18" height="20" viewBox="0 0 18 20" fill="none" xmlns="http://www.w3.org/2000/svg">
<path d="M17.5255 15V18.8906C17.5255 19.207 17.4536 19.4453 17.2448 19.6836C17.0326 19.9258 16.8306 20 16.5534 20C12.4424 19.918 7.65029 18.4258 4.51829 14.8516C1.38629 11.2773 0.0718819 5.80078 0 1.10937C0 0.792969 0.0684592 0.558594 0.277259 0.320313C0.486059 0.0820317 0.691436 0 0.972118 0H4.38138L5.25765 6L3.62148 8.42578C4.10754 10 5.08308 11.6719 6.19212 12.9414C7.30458 14.2109 8.76275 15.3125 10.1388 15.8672L12.2644 14L17.5255 15Z" fill="url(#paint0_linear_3_244)"/>
<defs>
<linearGradient id="paint0_linear_3_244" x1="-14.4585" y1="10" x2="40.872" y2="14.81" gradientUnits="userSpaceOnUse">
<stop stop-color="#7C03F4"/>
<stop offset="1" stop-color="#0092D1"/>
</linearGradient>
</defs>
</svg>
