<svg width="223" height="50" viewBox="0 0 223 50" fill="none" xmlns="http://www.w3.org/2000/svg">
<path d="M61.2305 26.6719H57.6328V24.293H61.2305C61.8164 24.293 62.2891 24.168 62.6484 23.918C63.0156 23.668 63.2812 23.3242 63.4453 22.8867C63.6172 22.4492 63.7031 21.9531 63.7031 21.3984C63.7031 20.8672 63.6172 20.3672 63.4453 19.8984C63.2812 19.4297 63.0195 19.0508 62.6602 18.7617C62.3008 18.4727 61.8242 18.3281 61.2305 18.3281H58.4297V33H55.5938V15.9375H61.2305C62.3555 15.9375 63.3164 16.1719 64.1133 16.6406C64.9102 17.1094 65.5195 17.7539 65.9414 18.5742C66.3633 19.3867 66.5742 20.3203 66.5742 21.375C66.5742 22.4766 66.3633 23.4219 65.9414 24.2109C65.5195 25 64.9102 25.6094 64.1133 26.0391C63.3164 26.4609 62.3555 26.6719 61.2305 26.6719ZM74.0386 33.2344C73.2183 33.2344 72.4878 33.1133 71.8472 32.8711C71.2066 32.6211 70.6636 32.2539 70.2183 31.7695C69.773 31.2773 69.4331 30.6758 69.1987 29.9648C68.9644 29.2461 68.8472 28.4141 68.8472 27.4688V26.25C68.8472 25.1797 68.9683 24.2578 69.2105 23.4844C69.4605 22.7031 69.8042 22.0625 70.2417 21.5625C70.6792 21.0625 71.1948 20.6914 71.7886 20.4492C72.3902 20.207 73.0425 20.0859 73.7456 20.0859C74.5425 20.0859 75.2339 20.2148 75.8198 20.4727C76.4058 20.7305 76.8862 21.1172 77.2612 21.6328C77.6441 22.1484 77.9253 22.7852 78.105 23.543C78.2925 24.3008 78.3862 25.1719 78.3862 26.1562V27.5273H70.1597V25.4648H75.6909V25.1719C75.6753 24.5938 75.605 24.0977 75.48 23.6836C75.355 23.2617 75.1519 22.9414 74.8706 22.7227C74.5972 22.4961 74.2183 22.3828 73.7339 22.3828C73.3823 22.3828 73.0698 22.4492 72.7964 22.582C72.523 22.7148 72.2964 22.9297 72.1167 23.2266C71.9448 23.5234 71.812 23.9219 71.7183 24.4219C71.6245 24.9141 71.5777 25.5234 71.5777 26.25V27.4688C71.5777 28.1016 71.6323 28.6367 71.7417 29.0742C71.8589 29.5117 72.0308 29.8711 72.2573 30.1523C72.4839 30.4258 72.7573 30.6289 73.0777 30.7617C73.4058 30.8867 73.7847 30.9492 74.2144 30.9492C74.8472 30.9492 75.3902 30.832 75.8433 30.5977C76.3042 30.3555 76.7027 30.043 77.0386 29.6602L78.2456 31.3359C78.0191 31.6406 77.7144 31.9414 77.3316 32.2383C76.9487 32.5273 76.4839 32.7656 75.937 32.9531C75.398 33.1406 74.7652 33.2344 74.0386 33.2344ZM87.5147 29.2148L90.3506 20.3203H92.7178L88.4873 33H86.5303L82.2881 20.3203H84.6787L87.5147 29.2148ZM83.9287 20.3203V33H81.2569V20.3203H83.9287ZM91.1006 33V20.3203H93.7842V33H91.1006ZM105.807 27.4336H108.643C108.588 28.668 108.338 29.7188 107.893 30.5859C107.448 31.4453 106.807 32.1016 105.971 32.5547C105.143 33.0078 104.131 33.2344 102.936 33.2344C102.03 33.2344 101.217 33.0703 100.499 32.7422C99.7877 32.4141 99.1822 31.9414 98.6822 31.3242C98.1822 30.6992 97.7994 29.9375 97.5337 29.0391C97.2759 28.1406 97.147 27.1211 97.147 25.9805V22.957C97.147 21.8164 97.2798 20.7969 97.5455 19.8984C97.8189 19 98.2095 18.2383 98.7173 17.6133C99.2252 16.9883 99.8423 16.5156 100.569 16.1953C101.303 15.8672 102.131 15.7031 103.053 15.7031C104.233 15.7031 105.225 15.9297 106.03 16.3828C106.835 16.8359 107.456 17.5 107.893 18.375C108.331 19.25 108.585 20.3164 108.655 21.5742H105.819C105.78 20.7227 105.663 20.043 105.467 19.5352C105.28 19.0195 104.991 18.6484 104.6 18.4219C104.217 18.1953 103.702 18.082 103.053 18.082C102.514 18.082 102.049 18.1836 101.659 18.3867C101.276 18.5898 100.96 18.8945 100.71 19.3008C100.467 19.6992 100.284 20.2031 100.159 20.8125C100.042 21.4141 99.983 22.1211 99.983 22.9336V25.9805C99.983 26.7617 100.034 27.4531 100.135 28.0547C100.237 28.6562 100.401 29.168 100.627 29.5898C100.854 30.0039 101.155 30.3203 101.53 30.5391C101.905 30.75 102.374 30.8555 102.936 30.8555C103.608 30.8555 104.143 30.75 104.542 30.5391C104.948 30.3281 105.249 29.9727 105.444 29.4727C105.639 28.9727 105.76 28.293 105.807 27.4336ZM116.26 33.2344C115.44 33.2344 114.709 33.1133 114.068 32.8711C113.428 32.6211 112.885 32.2539 112.44 31.7695C111.994 31.2773 111.654 30.6758 111.42 29.9648C111.186 29.2461 111.068 28.4141 111.068 27.4688V26.25C111.068 25.1797 111.19 24.2578 111.432 23.4844C111.682 22.7031 112.025 22.0625 112.463 21.5625C112.9 21.0625 113.416 20.6914 114.01 20.4492C114.611 20.207 115.264 20.0859 115.967 20.0859C116.764 20.0859 117.455 20.2148 118.041 20.4727C118.627 20.7305 119.107 21.1172 119.482 21.6328C119.865 22.1484 120.147 22.7852 120.326 23.543C120.514 24.3008 120.607 25.1719 120.607 26.1562V27.5273H112.381V25.4648H117.912V25.1719C117.897 24.5938 117.826 24.0977 117.701 23.6836C117.576 23.2617 117.373 22.9414 117.092 22.7227C116.818 22.4961 116.44 22.3828 115.955 22.3828C115.604 22.3828 115.291 22.4492 115.018 22.582C114.744 22.7148 114.518 22.9297 114.338 23.2266C114.166 23.5234 114.033 23.9219 113.94 24.4219C113.846 24.9141 113.799 25.5234 113.799 26.25V27.4688C113.799 28.1016 113.854 28.6367 113.963 29.0742C114.08 29.5117 114.252 29.8711 114.479 30.1523C114.705 30.4258 114.979 30.6289 115.299 30.7617C115.627 30.8867 116.006 30.9492 116.436 30.9492C117.068 30.9492 117.611 30.832 118.065 30.5977C118.525 30.3555 118.924 30.043 119.26 29.6602L120.467 31.3359C120.24 31.6406 119.936 31.9414 119.553 32.2383C119.17 32.5273 118.705 32.7656 118.158 32.9531C117.619 33.1406 116.986 33.2344 116.26 33.2344ZM126.009 22.7578V37.875H123.291V20.3203H125.787L126.009 22.7578ZM132.83 26.1562V27.1641C132.83 28.1562 132.74 29.0312 132.56 29.7891C132.38 30.5469 132.115 31.1836 131.763 31.6992C131.42 32.207 130.994 32.5898 130.486 32.8477C129.978 33.1055 129.384 33.2344 128.705 33.2344C128.064 33.2344 127.505 33.0938 127.029 32.8125C126.56 32.5312 126.166 32.1367 125.845 31.6289C125.525 31.1211 125.267 30.5195 125.072 29.8242C124.884 29.1211 124.748 28.3555 124.662 27.5273V25.9805C124.748 25.1055 124.88 24.3086 125.06 23.5898C125.248 22.8633 125.502 22.2383 125.822 21.7148C126.15 21.1914 126.548 20.7891 127.017 20.5078C127.486 20.2266 128.045 20.0859 128.693 20.0859C129.373 20.0859 129.97 20.207 130.486 20.4492C131.002 20.6914 131.431 21.0625 131.775 21.5625C132.127 22.0625 132.388 22.6953 132.56 23.4609C132.74 24.2188 132.83 25.1172 132.83 26.1562ZM130.099 27.1641V26.1562C130.099 25.5078 130.056 24.9492 129.97 24.4805C129.892 24.0039 129.759 23.6133 129.572 23.3086C129.392 23.0039 129.162 22.7773 128.88 22.6289C128.607 22.4805 128.267 22.4062 127.861 22.4062C127.502 22.4062 127.185 22.4805 126.912 22.6289C126.638 22.7773 126.408 22.9844 126.22 23.25C126.033 23.5078 125.884 23.8164 125.775 24.1758C125.666 24.5273 125.595 24.9102 125.564 25.3242V28.1953C125.634 28.6953 125.752 29.1562 125.916 29.5781C126.08 29.9922 126.318 30.3242 126.63 30.5742C126.951 30.8242 127.369 30.9492 127.884 30.9492C128.283 30.9492 128.623 30.8711 128.904 30.7148C129.185 30.5586 129.412 30.3242 129.584 30.0117C129.763 29.6992 129.892 29.3086 129.97 28.8398C130.056 28.3633 130.099 27.8047 130.099 27.1641ZM140.939 27.5859H137.646L137.634 25.5586H140.282C140.689 25.5586 141.021 25.5078 141.278 25.4062C141.544 25.2969 141.739 25.1367 141.864 24.9258C141.997 24.707 142.064 24.4414 142.064 24.1289C142.064 23.8633 142.025 23.6328 141.946 23.4375C141.868 23.2422 141.751 23.082 141.595 22.957C141.446 22.832 141.259 22.7422 141.032 22.6875C140.814 22.625 140.556 22.5938 140.259 22.5938H138.548V33H135.817V20.3203H140.259C140.954 20.3203 141.579 20.3906 142.134 20.5312C142.696 20.6719 143.177 20.8867 143.575 21.1758C143.974 21.4648 144.275 21.832 144.478 22.2773C144.689 22.7148 144.794 23.2344 144.794 23.8359C144.794 24.2188 144.72 24.582 144.571 24.9258C144.431 25.2695 144.216 25.5742 143.927 25.8398C143.646 26.1055 143.298 26.3242 142.884 26.4961C142.47 26.6602 141.993 26.7617 141.454 26.8008L140.939 27.5859ZM140.939 33H136.837L137.974 30.7266H140.927C141.31 30.7266 141.614 30.668 141.841 30.5508C142.075 30.4258 142.247 30.25 142.357 30.0234C142.474 29.7891 142.532 29.5078 142.532 29.1797C142.532 28.8516 142.478 28.5703 142.368 28.3359C142.267 28.0938 142.099 27.9102 141.864 27.7852C141.63 27.6523 141.317 27.5859 140.927 27.5859H138.22L138.243 25.5586H141.407L142.157 26.3555C142.86 26.4102 143.442 26.582 143.903 26.8711C144.364 27.1602 144.704 27.5234 144.923 27.9609C145.15 28.3984 145.263 28.875 145.263 29.3906C145.263 29.9844 145.165 30.5078 144.97 30.9609C144.775 31.4141 144.493 31.793 144.126 32.0977C143.767 32.3945 143.317 32.6211 142.778 32.7773C142.239 32.9258 141.626 33 140.939 33ZM150.923 28.3242L154.731 20.3203H157.391V33H154.684V25.0078L150.876 33H148.215V20.3203H150.923V28.3242ZM165.195 30.9492C165.547 30.9492 165.86 30.875 166.133 30.7266C166.414 30.5781 166.637 30.3477 166.801 30.0352C166.965 29.7148 167.055 29.3008 167.07 28.793H169.637C169.621 29.6914 169.414 30.4766 169.016 31.1484C168.617 31.8125 168.086 32.3281 167.422 32.6953C166.766 33.0547 166.035 33.2344 165.231 33.2344C164.395 33.2344 163.664 33.1016 163.039 32.8359C162.422 32.5625 161.91 32.168 161.504 31.6523C161.098 31.1367 160.793 30.5117 160.59 29.7773C160.395 29.0352 160.297 28.1875 160.297 27.2344V26.0859C160.297 25.1406 160.395 24.2969 160.59 23.5547C160.793 22.8125 161.098 22.1836 161.504 21.668C161.91 21.1523 162.422 20.7617 163.039 20.4961C163.656 20.2227 164.383 20.0859 165.219 20.0859C166.11 20.0859 166.879 20.2734 167.527 20.6484C168.184 21.0156 168.695 21.5547 169.063 22.2656C169.43 22.9766 169.621 23.8477 169.637 24.8789H167.07C167.055 24.332 166.973 23.875 166.824 23.5078C166.676 23.1328 166.465 22.8516 166.192 22.6641C165.926 22.4766 165.59 22.3828 165.184 22.3828C164.738 22.3828 164.371 22.4688 164.082 22.6406C163.801 22.8047 163.582 23.0469 163.426 23.3672C163.277 23.6875 163.172 24.0781 163.11 24.5391C163.055 24.9922 163.027 25.5078 163.027 26.0859V27.2344C163.027 27.8281 163.055 28.3555 163.11 28.8164C163.164 29.2695 163.266 29.6562 163.414 29.9766C163.57 30.2969 163.793 30.5391 164.082 30.7031C164.371 30.8672 164.742 30.9492 165.195 30.9492ZM181.378 15.9375V33H178.53V15.9375H181.378ZM189.898 15.9375L184.202 25.6992H180.558L180.148 23.0742H182.609L186.429 15.9375H189.898ZM186.933 33L182.691 25.2305L184.519 22.9336L190.343 33H186.933ZM193.425 15.9375H196.014L199.94 28.6289L203.854 15.9375H206.257L201.007 33H198.862L193.425 15.9375ZM192.452 15.9375H194.842L195.229 26.8008V33H192.452V15.9375ZM205.014 15.9375H207.417V33H204.639V26.8008L205.014 15.9375ZM216.58 25.3125H213.1L213.088 23.1328H216.17C216.647 23.1328 217.053 23.0391 217.389 22.8516C217.725 22.6641 217.979 22.3906 218.151 22.0312C218.33 21.6719 218.42 21.2383 218.42 20.7305C218.42 20.168 218.342 19.7109 218.186 19.3594C218.03 19 217.783 18.7383 217.447 18.5742C217.119 18.4102 216.697 18.3281 216.182 18.3281H213.944V33H211.096V15.9375H216.182C216.979 15.9375 217.69 16.0312 218.315 16.2188C218.947 16.3984 219.483 16.6758 219.92 17.0508C220.358 17.4258 220.69 17.9062 220.916 18.4922C221.151 19.0703 221.268 19.7578 221.268 20.5547C221.268 21.25 221.119 21.8906 220.822 22.4766C220.526 23.0547 220.084 23.5312 219.498 23.9062C218.92 24.2734 218.201 24.4922 217.342 24.5625L216.58 25.3125ZM216.475 33H212.162L213.475 30.6211H216.475C216.983 30.6211 217.401 30.5117 217.729 30.293C218.057 30.0742 218.303 29.7695 218.467 29.3789C218.631 28.9883 218.713 28.5312 218.713 28.0078C218.713 27.4609 218.643 26.9844 218.502 26.5781C218.362 26.1719 218.135 25.8594 217.822 25.6406C217.51 25.4219 217.096 25.3125 216.58 25.3125H213.709L213.733 23.1328H217.401L218.057 23.9648C218.877 23.9805 219.545 24.1836 220.061 24.5742C220.576 24.957 220.955 25.4531 221.197 26.0625C221.44 26.6719 221.561 27.3242 221.561 28.0195C221.561 29.1055 221.358 30.0195 220.951 30.7617C220.545 31.4961 219.963 32.0547 219.205 32.4375C218.455 32.8125 217.545 33 216.475 33Z" fill="black"/>
<path fill-rule="evenodd" clip-rule="evenodd" d="M24.944 17.7796C21.8343 17.7796 19.3134 20.2342 19.3134 23.2621C19.3134 26.2899 21.8343 28.7445 24.944 28.7445C28.0538 28.7445 30.5746 26.2899 30.5746 23.2621C30.5746 20.2342 28.0538 17.7796 24.944 17.7796ZM22.1287 23.2621C22.1287 21.7481 23.3892 20.5208 24.944 20.5208C26.4989 20.5208 27.7593 21.7481 27.7593 23.2621C27.7593 24.776 26.4989 26.0033 24.944 26.0033C23.3892 26.0033 22.1287 24.776 22.1287 23.2621Z" fill="url(#paint0_linear_5_3)"/>
<path fill-rule="evenodd" clip-rule="evenodd" d="M23.9396 7.5C21.9677 7.5 20.2226 8.826 19.8363 10.7292L19.725 11.2777C19.4607 12.58 17.9926 13.4356 16.5613 12.9662L16.0026 12.783C14.1364 12.171 12.0478 12.8861 11.0337 14.544L10.0295 16.1861C9.00583 17.8597 9.39521 19.9793 10.9224 21.2256L11.3699 21.5907C12.4569 22.4779 12.4569 24.0462 11.3699 24.9334L10.9224 25.2985C9.39521 26.5448 9.00583 28.6643 10.0295 30.338L11.0337 31.98C12.0478 33.638 14.1364 34.3531 16.0027 33.7411L16.5612 33.5578C17.9926 33.0884 19.4607 33.9439 19.725 35.2463L19.8363 35.7948C20.2226 37.6981 21.9677 39.0241 23.9396 39.0241H25.9482C27.9203 39.0241 29.6654 37.6981 30.0517 35.7947L30.1629 35.2464C30.4271 33.9441 31.8953 33.0884 33.3267 33.5578L33.8853 33.7411C35.7516 34.3531 37.8402 33.638 38.8543 31.98L39.8585 30.3381C40.8822 28.6645 40.4927 26.5448 38.9655 25.2985L38.518 24.9334C37.4309 24.0463 37.4309 22.4778 38.518 21.5907L38.9655 21.2256C40.4927 19.9793 40.8822 17.8597 39.8585 16.186L38.8543 14.544C37.8402 12.8861 35.7517 12.171 33.8854 12.7829L33.3266 12.9662C31.8953 13.4356 30.4271 12.58 30.1629 11.2776L30.0517 10.7294C29.6654 8.82608 27.9203 7.5 25.9482 7.5H23.9396ZM22.5983 11.2606C22.7124 10.6981 23.2521 10.2412 23.9396 10.2412H25.9482C26.6359 10.2412 27.1755 10.6981 27.2897 11.2607L27.4009 11.8089C28.0111 14.8165 31.2654 16.5346 34.2251 15.564L34.7839 15.3808C35.4301 15.169 36.1197 15.4303 36.4354 15.9466L37.4396 17.5886C37.7458 18.0892 37.6419 18.729 37.1571 19.1247L36.7098 19.4898C34.28 21.4725 34.28 25.0517 36.7098 27.0344L37.1571 27.3994C37.6419 27.7951 37.7458 28.4349 37.4396 28.9356L36.4354 30.5774C36.1197 31.0937 35.4301 31.3551 34.7839 31.1432L34.2252 30.96C31.2654 29.9893 28.0111 31.7075 27.4009 34.7152L27.2897 35.2634C27.1755 35.8259 26.6359 36.2829 25.9482 36.2829H23.9396C23.2521 36.2829 22.7124 35.8261 22.5983 35.2634L22.4869 34.7149C21.8766 31.7074 18.6224 29.9893 15.6625 30.9601L15.104 31.1432C14.458 31.3551 13.7684 31.0937 13.4526 30.5774L12.4484 28.9354C12.1422 28.4349 12.2461 27.7951 12.7308 27.3994L13.1783 27.0343C15.6079 25.0515 15.6079 21.4726 13.1783 19.4898L12.7308 19.1247C12.2461 18.7291 12.1422 18.0892 12.4484 17.5886L13.4526 15.9466C13.7684 15.4303 14.458 15.169 15.104 15.3808L15.6627 15.564C18.6225 16.5346 21.8766 14.8166 22.4869 11.8091L22.5983 11.2606Z" fill="url(#paint1_linear_5_3)"/>
<path d="M11 43L40 43" stroke="url(#paint2_linear_5_3)" stroke-width="2" stroke-linecap="round"/>
<defs>
<linearGradient id="paint0_linear_5_3" x1="10.0229" y1="23.2621" x2="45.4768" y2="26.8743" gradientUnits="userSpaceOnUse">
<stop stop-color="#7C03F4"/>
<stop offset="1" stop-color="#0092D1"/>
</linearGradient>
<linearGradient id="paint1_linear_5_3" x1="-16.09" y1="23.2621" x2="81.4957" y2="32.7727" gradientUnits="userSpaceOnUse">
<stop stop-color="#7C03F4"/>
<stop offset="1" stop-color="#0092D1"/>
</linearGradient>
<linearGradient id="paint2_linear_5_3" x1="-12.925" y1="43.5" x2="-2.98119" y2="72.1082" gradientUnits="userSpaceOnUse">
<stop stop-color="#7C03F4"/>
<stop offset="1" stop-color="#0092D1"/>
</linearGradient>
</defs>
</svg>
