<svg width="102" height="50" viewBox="0 0 102 50" fill="none" xmlns="http://www.w3.org/2000/svg">
<path d="M51.8203 18.7812H49.4219V17.1953H51.8203C52.2109 17.1953 52.526 17.112 52.7656 16.9453C53.0104 16.7786 53.1875 16.5495 53.2969 16.2578C53.4115 15.9661 53.4688 15.6354 53.4688 15.2656C53.4688 14.9115 53.4115 14.5781 53.2969 14.2656C53.1875 13.9531 53.013 13.7005 52.7734 13.5078C52.5339 13.3151 52.2161 13.2188 51.8203 13.2188H49.9531V23H48.0625V11.625H51.8203C52.5703 11.625 53.2109 11.7812 53.7422 12.0938C54.2734 12.4062 54.6797 12.8359 54.9609 13.3828C55.2422 13.9245 55.3828 14.5469 55.3828 15.25C55.3828 15.9844 55.2422 16.6146 54.9609 17.1406C54.6797 17.6667 54.2734 18.0729 53.7422 18.3594C53.2109 18.6406 52.5703 18.7812 51.8203 18.7812ZM60.3591 23.1562C59.8122 23.1562 59.3252 23.0755 58.8981 22.9141C58.471 22.7474 58.1091 22.5026 57.8122 22.1797C57.5153 21.8516 57.2887 21.4505 57.1325 20.9766C56.9762 20.4974 56.8981 19.9427 56.8981 19.3125V18.5C56.8981 17.7865 56.9789 17.1719 57.1403 16.6562C57.307 16.1354 57.5361 15.7083 57.8278 15.375C58.1195 15.0417 58.4632 14.7943 58.8591 14.6328C59.2601 14.4714 59.695 14.3906 60.1637 14.3906C60.695 14.3906 61.1559 14.4766 61.5466 14.6484C61.9372 14.8203 62.2575 15.0781 62.5075 15.4219C62.7627 15.7656 62.9502 16.1901 63.07 16.6953C63.195 17.2005 63.2575 17.7812 63.2575 18.4375V19.3516H57.7731V17.9766H61.4606V17.7812C61.4502 17.3958 61.4033 17.0651 61.32 16.7891C61.2367 16.5078 61.1012 16.2943 60.9137 16.1484C60.7315 15.9974 60.4789 15.9219 60.1559 15.9219C59.9216 15.9219 59.7132 15.9661 59.5309 16.0547C59.3486 16.1432 59.1976 16.2865 59.0778 16.4844C58.9632 16.6823 58.8747 16.9479 58.8122 17.2812C58.7497 17.6094 58.7184 18.0156 58.7184 18.5V19.3125C58.7184 19.7344 58.7549 20.0911 58.8278 20.3828C58.9059 20.6745 59.0205 20.9141 59.1716 21.1016C59.3226 21.2839 59.5049 21.4193 59.7184 21.5078C59.9372 21.5911 60.1898 21.6328 60.4762 21.6328C60.8981 21.6328 61.2601 21.5547 61.5622 21.3984C61.8695 21.237 62.1351 21.0286 62.3591 20.7734L63.1637 21.8906C63.0127 22.0938 62.8096 22.2943 62.5544 22.4922C62.2992 22.6849 61.9893 22.8438 61.6247 22.9688C61.2653 23.0938 60.8434 23.1562 60.3591 23.1562ZM69.3431 20.4766L71.2337 14.5469H72.8119L69.9916 23H68.6869L65.8587 14.5469H67.4525L69.3431 20.4766ZM66.9525 14.5469V23H65.1712V14.5469H66.9525ZM71.7337 23V14.5469H73.5228V23H71.7337Z" fill="black"/>
<path d="M53.6094 33.2891H55.5C55.4635 34.112 55.2969 34.8125 55 35.3906C54.7031 35.9635 54.276 36.401 53.7188 36.7031C53.1667 37.0052 52.4922 37.1562 51.6953 37.1562C51.0911 37.1562 50.5495 37.0469 50.0703 36.8281C49.5964 36.6094 49.1927 36.2943 48.8594 35.8828C48.526 35.4661 48.2708 34.9583 48.0938 34.3594C47.9219 33.7604 47.8359 33.0807 47.8359 32.3203V30.3047C47.8359 29.5443 47.9245 28.8646 48.1016 28.2656C48.2839 27.6667 48.5443 27.1589 48.8828 26.7422C49.2214 26.3255 49.6328 26.0104 50.1172 25.7969C50.6068 25.5781 51.1589 25.4688 51.7734 25.4688C52.5599 25.4688 53.2214 25.6198 53.7578 25.9219C54.2943 26.224 54.7083 26.6667 55 27.25C55.2917 27.8333 55.4609 28.5443 55.5078 29.3828H53.6172C53.5911 28.8151 53.513 28.362 53.3828 28.0234C53.2578 27.6797 53.0651 27.4323 52.8047 27.2812C52.5495 27.1302 52.2057 27.0547 51.7734 27.0547C51.4141 27.0547 51.1042 27.1224 50.8438 27.2578C50.5885 27.3932 50.3776 27.5964 50.2109 27.8672C50.0495 28.1328 49.9271 28.4688 49.8438 28.875C49.7656 29.276 49.7266 29.7474 49.7266 30.2891V32.3203C49.7266 32.8411 49.7604 33.3021 49.8281 33.7031C49.8958 34.1042 50.0052 34.4453 50.1562 34.7266C50.3073 35.0026 50.5078 35.2135 50.7578 35.3594C51.0078 35.5 51.3203 35.5703 51.6953 35.5703C52.1432 35.5703 52.5 35.5 52.7656 35.3594C53.0365 35.2188 53.237 34.9818 53.3672 34.6484C53.4974 34.3151 53.5781 33.862 53.6094 33.2891ZM60.5778 37.1562C60.0309 37.1562 59.544 37.0755 59.1169 36.9141C58.6898 36.7474 58.3278 36.5026 58.0309 36.1797C57.7341 35.8516 57.5075 35.4505 57.3512 34.9766C57.195 34.4974 57.1169 33.9427 57.1169 33.3125V32.5C57.1169 31.7865 57.1976 31.1719 57.3591 30.6562C57.5257 30.1354 57.7549 29.7083 58.0466 29.375C58.3382 29.0417 58.682 28.7943 59.0778 28.6328C59.4789 28.4714 59.9137 28.3906 60.3825 28.3906C60.9137 28.3906 61.3747 28.4766 61.7653 28.6484C62.1559 28.8203 62.4762 29.0781 62.7262 29.4219C62.9815 29.7656 63.169 30.1901 63.2887 30.6953C63.4137 31.2005 63.4762 31.7812 63.4762 32.4375V33.3516H57.9919V31.9766H61.6794V31.7812C61.669 31.3958 61.6221 31.0651 61.5387 30.7891C61.4554 30.5078 61.32 30.2943 61.1325 30.1484C60.9502 29.9974 60.6976 29.9219 60.3747 29.9219C60.1403 29.9219 59.932 29.9661 59.7497 30.0547C59.5674 30.1432 59.4164 30.2865 59.2966 30.4844C59.182 30.6823 59.0934 30.9479 59.0309 31.2812C58.9684 31.6094 58.9372 32.0156 58.9372 32.5V33.3125C58.9372 33.7344 58.9736 34.0911 59.0466 34.3828C59.1247 34.6745 59.2393 34.9141 59.3903 35.1016C59.5414 35.2839 59.7236 35.4193 59.9372 35.5078C60.1559 35.5911 60.4085 35.6328 60.695 35.6328C61.1169 35.6328 61.4789 35.5547 61.7809 35.3984C62.0882 35.237 62.3539 35.0286 62.5778 34.7734L63.3825 35.8906C63.2315 36.0938 63.0283 36.2943 62.7731 36.4922C62.5179 36.6849 62.208 36.8438 61.8434 36.9688C61.4841 37.0938 61.0622 37.1562 60.5778 37.1562ZM67.0775 30.1719V40.25H65.265V28.5469H66.9291L67.0775 30.1719ZM71.6244 32.4375V33.1094C71.6244 33.7708 71.5645 34.3542 71.4447 34.8594C71.3249 35.3646 71.1478 35.7891 70.9134 36.1328C70.6843 36.4714 70.4004 36.7266 70.0619 36.8984C69.7233 37.0703 69.3275 37.1562 68.8744 37.1562C68.4473 37.1562 68.0749 37.0625 67.7572 36.875C67.4447 36.6875 67.1817 36.4245 66.9681 36.0859C66.7546 35.7474 66.5827 35.3464 66.4525 34.8828C66.3275 34.4141 66.2364 33.9036 66.1791 33.3516V32.3203C66.2364 31.737 66.3249 31.2057 66.4447 30.7266C66.5697 30.2422 66.739 29.8255 66.9525 29.4766C67.1712 29.1276 67.4369 28.8594 67.7494 28.6719C68.0619 28.4844 68.4343 28.3906 68.8666 28.3906C69.3197 28.3906 69.7181 28.4714 70.0619 28.6328C70.4056 28.7943 70.6921 29.0417 70.9212 29.375C71.1556 29.7083 71.3301 30.1302 71.4447 30.6406C71.5645 31.1458 71.6244 31.7448 71.6244 32.4375ZM69.8041 33.1094V32.4375C69.8041 32.0052 69.7754 31.6328 69.7181 31.3203C69.666 31.0026 69.5775 30.7422 69.4525 30.5391C69.3327 30.3359 69.1791 30.1849 68.9916 30.0859C68.8093 29.987 68.5827 29.9375 68.3119 29.9375C68.0723 29.9375 67.8614 29.987 67.6791 30.0859C67.4968 30.1849 67.3431 30.3229 67.2181 30.5C67.0931 30.6719 66.9942 30.8776 66.9212 31.1172C66.8483 31.3516 66.8015 31.6068 66.7806 31.8828V33.7969C66.8275 34.1302 66.9056 34.4375 67.015 34.7188C67.1244 34.9948 67.2832 35.2161 67.4916 35.3828C67.7051 35.5495 67.9837 35.6328 68.3275 35.6328C68.5931 35.6328 68.8197 35.5807 69.0072 35.4766C69.1947 35.3724 69.3457 35.2161 69.4603 35.0078C69.5801 34.7995 69.666 34.5391 69.7181 34.2266C69.7754 33.9089 69.8041 33.5365 69.8041 33.1094ZM77.0303 33.3906H74.835L74.8272 32.0391H76.5928C76.8636 32.0391 77.085 32.0052 77.2569 31.9375C77.434 31.8646 77.5642 31.7578 77.6475 31.6172C77.736 31.4714 77.7803 31.2943 77.7803 31.0859C77.7803 30.9089 77.7543 30.7552 77.7022 30.625C77.6501 30.4948 77.572 30.388 77.4678 30.3047C77.3689 30.2214 77.2439 30.1615 77.0928 30.125C76.947 30.0833 76.7751 30.0625 76.5772 30.0625H75.4366V37H73.6162V28.5469H76.5772C77.0407 28.5469 77.4574 28.5938 77.8272 28.6875C78.2022 28.7812 78.5225 28.9245 78.7881 29.1172C79.0537 29.3099 79.2543 29.5547 79.3897 29.8516C79.5303 30.1432 79.6006 30.4896 79.6006 30.8906C79.6006 31.1458 79.5511 31.388 79.4522 31.6172C79.3584 31.8464 79.2152 32.0495 79.0225 32.2266C78.835 32.4036 78.6032 32.5495 78.3272 32.6641C78.0511 32.7734 77.7334 32.8411 77.3741 32.8672L77.0303 33.3906ZM77.0303 37H74.2959L75.0537 35.4844H77.0225C77.2777 35.4844 77.4808 35.4453 77.6319 35.3672C77.7881 35.2839 77.9027 35.1667 77.9756 35.0156C78.0537 34.8594 78.0928 34.6719 78.0928 34.4531C78.0928 34.2344 78.0564 34.0469 77.9834 33.8906C77.9157 33.7292 77.8037 33.6068 77.6475 33.5234C77.4912 33.4349 77.2829 33.3906 77.0225 33.3906H75.2178L75.2334 32.0391H77.3428L77.8428 32.5703C78.3116 32.6068 78.6996 32.7214 79.0069 32.9141C79.3142 33.1068 79.5407 33.349 79.6866 33.6406C79.8376 33.9323 79.9131 34.25 79.9131 34.5938C79.9131 34.9896 79.848 35.3385 79.7178 35.6406C79.5876 35.9427 79.4001 36.1953 79.1553 36.3984C78.9157 36.5964 78.6162 36.7474 78.2569 36.8516C77.8975 36.9505 77.4886 37 77.0303 37ZM83.6862 33.8828L86.2253 28.5469H87.9987V37H86.1941V31.6719L83.655 37H81.8816V28.5469H83.6862V33.8828ZM93.2016 35.6328C93.4359 35.6328 93.6443 35.5833 93.8266 35.4844C94.0141 35.3854 94.1625 35.2318 94.2719 35.0234C94.3812 34.8099 94.4411 34.5339 94.4516 34.1953H96.1625C96.1521 34.7943 96.0141 35.3177 95.7484 35.7656C95.4828 36.2083 95.1286 36.5521 94.6859 36.7969C94.2484 37.0365 93.7615 37.1562 93.225 37.1562C92.6677 37.1562 92.1807 37.0677 91.7641 36.8906C91.3526 36.7083 91.0115 36.4453 90.7406 36.1016C90.4698 35.7578 90.2667 35.3411 90.1312 34.8516C90.001 34.3568 89.9359 33.7917 89.9359 33.1562V32.3906C89.9359 31.7604 90.001 31.1979 90.1312 30.7031C90.2667 30.2083 90.4698 29.7891 90.7406 29.4453C91.0115 29.1016 91.3526 28.8411 91.7641 28.6641C92.1755 28.4818 92.6599 28.3906 93.2172 28.3906C93.8109 28.3906 94.324 28.5156 94.7562 28.7656C95.1937 29.0104 95.5349 29.3698 95.7797 29.8438C96.0245 30.3177 96.1521 30.8984 96.1625 31.5859H94.4516C94.4411 31.2214 94.3865 30.9167 94.2875 30.6719C94.1885 30.4219 94.0479 30.2344 93.8656 30.1094C93.6885 29.9844 93.4646 29.9219 93.1937 29.9219C92.8969 29.9219 92.6521 29.9792 92.4594 30.0938C92.2719 30.2031 92.126 30.3646 92.0219 30.5781C91.9229 30.7917 91.8526 31.0521 91.8109 31.3594C91.7745 31.6615 91.7562 32.0052 91.7562 32.3906V33.1562C91.7562 33.5521 91.7745 33.9036 91.8109 34.2109C91.8474 34.513 91.9151 34.7708 92.0141 34.9844C92.1182 35.1979 92.2667 35.3594 92.4594 35.4688C92.6521 35.5781 92.8995 35.6328 93.2016 35.6328Z" fill="black"/>
<path fill-rule="evenodd" clip-rule="evenodd" d="M24.944 17.7796C21.8343 17.7796 19.3134 20.2342 19.3134 23.2621C19.3134 26.2899 21.8343 28.7445 24.944 28.7445C28.0538 28.7445 30.5746 26.2899 30.5746 23.2621C30.5746 20.2342 28.0538 17.7796 24.944 17.7796ZM22.1287 23.2621C22.1287 21.7481 23.3892 20.5208 24.944 20.5208C26.4989 20.5208 27.7593 21.7481 27.7593 23.2621C27.7593 24.776 26.4989 26.0033 24.944 26.0033C23.3892 26.0033 22.1287 24.776 22.1287 23.2621Z" fill="url(#paint0_linear_54_19)"/>
<path fill-rule="evenodd" clip-rule="evenodd" d="M23.9396 7.5C21.9677 7.5 20.2226 8.826 19.8363 10.7292L19.725 11.2777C19.4607 12.58 17.9926 13.4356 16.5613 12.9662L16.0026 12.783C14.1364 12.171 12.0478 12.8861 11.0337 14.544L10.0295 16.1861C9.00583 17.8597 9.39521 19.9793 10.9224 21.2256L11.3699 21.5907C12.4569 22.4779 12.4569 24.0462 11.3699 24.9334L10.9224 25.2985C9.39521 26.5448 9.00583 28.6643 10.0295 30.338L11.0337 31.98C12.0478 33.638 14.1364 34.3531 16.0027 33.7411L16.5612 33.5578C17.9926 33.0884 19.4607 33.9439 19.725 35.2463L19.8363 35.7948C20.2226 37.6981 21.9677 39.0241 23.9396 39.0241H25.9482C27.9203 39.0241 29.6654 37.6981 30.0517 35.7947L30.1629 35.2464C30.4271 33.9441 31.8953 33.0884 33.3267 33.5578L33.8853 33.7411C35.7516 34.3531 37.8402 33.638 38.8543 31.98L39.8585 30.3381C40.8822 28.6645 40.4927 26.5448 38.9655 25.2985L38.518 24.9334C37.4309 24.0463 37.4309 22.4778 38.518 21.5907L38.9655 21.2256C40.4927 19.9793 40.8822 17.8597 39.8585 16.186L38.8543 14.544C37.8402 12.8861 35.7517 12.171 33.8854 12.7829L33.3266 12.9662C31.8953 13.4356 30.4271 12.58 30.1629 11.2776L30.0517 10.7294C29.6654 8.82608 27.9203 7.5 25.9482 7.5H23.9396ZM22.5983 11.2606C22.7124 10.6981 23.2521 10.2412 23.9396 10.2412H25.9482C26.6359 10.2412 27.1755 10.6981 27.2897 11.2607L27.4009 11.8089C28.0111 14.8165 31.2654 16.5346 34.2251 15.564L34.7839 15.3808C35.4301 15.169 36.1197 15.4303 36.4354 15.9466L37.4396 17.5886C37.7458 18.0892 37.6419 18.729 37.1571 19.1247L36.7098 19.4898C34.28 21.4725 34.28 25.0517 36.7098 27.0344L37.1571 27.3994C37.6419 27.7951 37.7458 28.4349 37.4396 28.9356L36.4354 30.5774C36.1197 31.0937 35.4301 31.3551 34.7839 31.1432L34.2252 30.96C31.2654 29.9893 28.0111 31.7075 27.4009 34.7152L27.2897 35.2634C27.1755 35.8259 26.6359 36.2829 25.9482 36.2829H23.9396C23.2521 36.2829 22.7124 35.8261 22.5983 35.2634L22.4869 34.7149C21.8766 31.7074 18.6224 29.9893 15.6625 30.9601L15.104 31.1432C14.458 31.3551 13.7684 31.0937 13.4526 30.5774L12.4484 28.9354C12.1422 28.4349 12.2461 27.7951 12.7308 27.3994L13.1783 27.0343C15.6079 25.0515 15.6079 21.4726 13.1783 19.4898L12.7308 19.1247C12.2461 18.7291 12.1422 18.0892 12.4484 17.5886L13.4526 15.9466C13.7684 15.4303 14.458 15.169 15.104 15.3808L15.6627 15.564C18.6225 16.5346 21.8766 14.8166 22.4869 11.8091L22.5983 11.2606Z" fill="url(#paint1_linear_54_19)"/>
<path d="M11 43L40 43" stroke="url(#paint2_linear_54_19)" stroke-width="2" stroke-linecap="round"/>
<rect x="79" y="13" width="23" height="10" rx="5" fill="url(#paint3_linear_54_19)"/>
<path d="M84.5039 15.3125V21H83.5547V15.3125H84.5039ZM87.3438 15.3125L85.4453 18.5664H84.2305L84.0938 17.6914H84.9141L86.1875 15.3125H87.3438ZM86.3555 21L84.9414 18.4102L85.5508 17.6445L87.4922 21H86.3555ZM88.3594 15.3125H89.2227L90.5312 19.543L91.8359 15.3125H92.6367L90.8867 21H90.1719L88.3594 15.3125ZM88.0352 15.3125H88.832L88.9609 18.9336V21H88.0352V15.3125ZM92.2227 15.3125H93.0234V21H92.0977V18.9336L92.2227 15.3125ZM95.918 18.4375H94.7578L94.7539 17.7109H95.7812C95.9401 17.7109 96.0755 17.6797 96.1875 17.6172C96.2995 17.5547 96.3841 17.4635 96.4414 17.3438C96.5013 17.224 96.5312 17.0794 96.5312 16.9102C96.5312 16.7227 96.5052 16.5703 96.4531 16.4531C96.401 16.3333 96.319 16.2461 96.207 16.1914C96.0977 16.1367 95.957 16.1094 95.7852 16.1094H95.0391V21H94.0898V15.3125H95.7852C96.0508 15.3125 96.2878 15.3438 96.4961 15.4062C96.707 15.4661 96.8854 15.5586 97.0312 15.6836C97.1771 15.8086 97.2878 15.9688 97.3633 16.1641C97.4414 16.3568 97.4805 16.5859 97.4805 16.8516C97.4805 17.0833 97.431 17.2969 97.332 17.4922C97.2331 17.6849 97.0859 17.8438 96.8906 17.9688C96.6979 18.0911 96.4583 18.1641 96.1719 18.1875L95.918 18.4375ZM95.8828 21H94.4453L94.8828 20.207H95.8828C96.0521 20.207 96.1914 20.1706 96.3008 20.0977C96.4102 20.0247 96.4922 19.9232 96.5469 19.793C96.6016 19.6628 96.6289 19.5104 96.6289 19.3359C96.6289 19.1536 96.6055 18.9948 96.5586 18.8594C96.5117 18.724 96.4362 18.6198 96.332 18.5469C96.2279 18.474 96.0898 18.4375 95.918 18.4375H94.9609L94.9688 17.7109H96.1914L96.4102 17.9883C96.6836 17.9935 96.9062 18.0612 97.0781 18.1914C97.25 18.319 97.3763 18.4844 97.457 18.6875C97.5378 18.8906 97.5781 19.1081 97.5781 19.3398C97.5781 19.7018 97.5104 20.0065 97.375 20.2539C97.2396 20.4987 97.0456 20.6849 96.793 20.8125C96.543 20.9375 96.2396 21 95.8828 21Z" fill="white"/>
<defs>
<linearGradient id="paint0_linear_54_19" x1="10.0229" y1="23.2621" x2="45.4768" y2="26.8743" gradientUnits="userSpaceOnUse">
<stop stop-color="#7C03F4"/>
<stop offset="1" stop-color="#0092D1"/>
</linearGradient>
<linearGradient id="paint1_linear_54_19" x1="-16.09" y1="23.2621" x2="81.4957" y2="32.7727" gradientUnits="userSpaceOnUse">
<stop stop-color="#7C03F4"/>
<stop offset="1" stop-color="#0092D1"/>
</linearGradient>
<linearGradient id="paint2_linear_54_19" x1="-12.925" y1="43.5" x2="-2.98119" y2="72.1082" gradientUnits="userSpaceOnUse">
<stop stop-color="#7C03F4"/>
<stop offset="1" stop-color="#0092D1"/>
</linearGradient>
<linearGradient id="paint3_linear_54_19" x1="60.025" y1="18" x2="129.567" y2="33.8678" gradientUnits="userSpaceOnUse">
<stop stop-color="#7C03F4"/>
<stop offset="1" stop-color="#0092D1"/>
</linearGradient>
</defs>
</svg>
