<svg width="40" height="40" viewBox="0 0 40 40" fill="none" xmlns="http://www.w3.org/2000/svg">
<circle cx="20" cy="20" r="20" fill="white"/>
<path d="M29.3605 25.333V29.483C29.3605 29.8205 29.2838 30.0747 29.0611 30.3288C28.8347 30.5872 28.6193 30.6663 28.3235 30.6663C23.9385 30.5788 18.8269 28.9872 15.4861 25.1747C12.1453 21.3622 10.7433 15.5205 10.6666 10.5163C10.6666 10.1788 10.7396 9.92884 10.9623 9.67467C11.1851 9.42051 11.4041 9.33301 11.7035 9.33301H15.3401L16.2748 15.733L14.5295 18.3205C15.048 19.9997 16.0886 21.783 17.2715 23.1372C18.4582 24.4913 20.0135 25.6663 21.4813 26.258L23.7487 24.2663L29.3605 25.333Z" fill="#118CE5"/>
</svg>
