<svg width="40" height="40" viewBox="0 0 40 40" fill="none" xmlns="http://www.w3.org/2000/svg">
<circle cx="20" cy="20" r="20" fill="#118CE5"/>
<path d="M30.6667 20.0002C30.6667 25.8912 25.891 30.6668 20 30.6668C14.109 30.6668 9.33334 25.8912 9.33334 20.0002C9.33334 14.1091 14.109 9.3335 20 9.3335C25.891 9.3335 30.6667 14.1091 30.6667 20.0002ZM11.2794 20.0002C11.2794 24.8165 15.1837 28.7208 20 28.7208C24.8163 28.7208 28.7207 24.8165 28.7207 20.0002C28.7207 15.1839 24.8163 11.2795 20 11.2795C15.1837 11.2795 11.2794 15.1839 11.2794 20.0002Z" fill="white"/>
<path d="M20 13.2124C19.4645 13.2124 19.0303 13.6465 19.0303 14.1821V20.4528C19.0303 20.4528 19.0303 20.7056 19.1532 20.8958C19.2354 21.0571 19.3636 21.1972 19.5321 21.2944L24.0119 23.8809C24.4757 24.1486 25.0687 23.9897 25.3365 23.5259C25.6042 23.0621 25.4454 22.469 24.9816 22.2013L20.9697 19.8851V14.1821C20.9697 13.6466 20.5356 13.2124 20 13.2124Z" fill="white"/>
</svg>
